<?xml version="1.0" standalone="no"?>
<!DOCTYPE svg PUBLIC "-//W3C//DTD SVG 20010904//EN"
 "http://www.w3.org/TR/2001/REC-SVG-20010904/DTD/svg10.dtd">
<svg version="1.0" xmlns="http://www.w3.org/2000/svg"
 width="400.000000pt" height="400.000000pt" viewBox="0 0 400.000000 400.000000"
 preserveAspectRatio="xMidYMid meet">
<metadata>
Created by potrace 1.11, written by Peter Selinger 2001-2013
</metadata>
<g transform="translate(0.000000,400.000000) scale(0.100000,-0.100000)"
fill="#000000" stroke="none">
<path d="M1664 3981 c-9 -9 -14 -11 -10 -4 4 7 -1 11 -13 10 -11 0 -17 -5 -15
-9 3 -4 -3 -7 -13 -6 -38 3 -74 -2 -69 -10 3 -5 -7 -8 -22 -7 -15 1 -29 -2
-32 -7 -6 -7 -38 -16 -68 -17 -8 -1 -10 -6 -6 -13 6 -10 4 -10 -8 0 -12 9 -18
10 -23 2 -4 -7 -15 -10 -25 -7 -14 3 -17 1 -13 -11 5 -12 2 -14 -11 -9 -10 4
-23 4 -29 0 -7 -4 -14 -8 -17 -9 -8 -1 -43 -15 -75 -29 -16 -8 -32 -12 -36 -9
-4 2 -9 -2 -12 -10 -3 -7 -22 -16 -41 -20 -20 -4 -36 -12 -36 -18 0 -5 -7 -8
-15 -4 -8 3 -14 0 -12 -6 1 -7 -7 -14 -18 -16 -11 -2 -32 -13 -47 -23 -14 -11
-31 -19 -37 -19 -6 0 -11 -4 -11 -10 0 -5 -7 -10 -15 -10 -8 0 -15 -5 -15 -11
0 -6 -7 -9 -15 -5 -8 3 -14 1 -12 -3 1 -5 -2 -9 -7 -9 -5 0 -13 -7 -18 -16 -5
-9 -16 -16 -23 -16 -8 0 -15 -4 -15 -10 0 -5 -5 -10 -10 -10 -6 0 -22 -11 -36
-25 -14 -14 -30 -22 -36 -19 -7 4 -8 2 -4 -4 4 -7 3 -12 -3 -12 -5 0 -35 -25
-65 -55 -31 -30 -56 -51 -56 -47 0 4 -8 -5 -18 -21 -10 -15 -21 -25 -24 -21
-4 3 -9 -4 -13 -15 -3 -12 -11 -19 -16 -16 -5 4 -9 2 -9 -4 0 -6 -15 -25 -32
-43 -18 -18 -32 -36 -30 -40 1 -5 -4 -8 -11 -8 -7 0 -17 -10 -22 -22 -6 -13
-17 -22 -24 -20 -7 1 -10 -2 -6 -8 3 -5 -5 -22 -19 -37 -14 -15 -22 -31 -19
-36 3 -6 2 -8 -3 -5 -13 9 -34 -16 -34 -40 0 -5 -13 -22 -29 -38 -23 -23 -27
-32 -18 -43 9 -11 9 -13 0 -8 -7 5 -18 -5 -29 -28 -9 -19 -21 -35 -27 -35 -6
0 -7 -3 -4 -6 7 -7 -22 -64 -38 -76 -5 -4 -6 -8 -2 -8 4 0 2 -10 -5 -22 -7
-13 -11 -26 -10 -30 1 -5 -3 -8 -9 -8 -6 0 -9 -6 -6 -12 2 -7 -3 -19 -12 -26
-9 -8 -10 -10 -2 -7 9 6 9 1 -3 -17 -9 -14 -13 -28 -9 -31 3 -4 1 -7 -6 -7 -7
0 -10 -4 -6 -9 3 -5 1 -12 -5 -16 -6 -4 -8 -11 -5 -16 4 -5 1 -9 -5 -9 -6 0
-8 -4 -5 -10 3 -5 3 -16 -2 -22 -4 -7 -9 -22 -10 -33 -2 -11 -8 -24 -13 -29
-4 -4 -6 -15 -3 -22 3 -8 0 -14 -6 -14 -6 0 -11 -5 -11 -11 0 -5 6 -7 13 -3 6
4 5 -1 -4 -12 -8 -10 -15 -28 -15 -39 1 -11 -3 -23 -8 -26 -5 -4 -9 -23 -10
-43 0 -20 -4 -36 -7 -36 -3 0 -5 -11 -4 -25 2 -14 0 -25 -4 -25 -4 0 -7 -23
-6 -50 1 -28 -2 -50 -5 -50 -11 0 -8 -410 2 -416 6 -4 5 -10 -3 -15 -8 -5 -9
-9 -4 -9 6 0 10 -17 9 -37 -1 -21 1 -42 4 -48 3 -5 7 -21 8 -35 4 -35 8 -53
18 -69 7 -10 5 -12 -3 -6 -10 6 -11 3 -2 -12 6 -11 7 -23 4 -27 -3 -3 -1 -6 6
-6 7 0 9 -5 6 -10 -4 -6 0 -24 9 -40 9 -19 10 -28 3 -23 -8 4 -8 1 1 -9 12
-15 23 -47 24 -75 1 -7 5 -13 9 -13 5 0 6 -7 3 -15 -4 -8 -2 -15 4 -15 6 0 9
-11 7 -25 -1 -14 1 -25 6 -25 4 0 14 -19 21 -42 6 -24 16 -46 20 -49 5 -3 11
-16 13 -29 2 -13 10 -27 17 -32 7 -4 9 -8 5 -8 -8 0 32 -80 45 -90 3 -3 8 -12
10 -20 2 -8 10 -21 18 -28 13 -12 13 -13 0 -6 -15 8 14 -33 35 -48 7 -5 7 -8
0 -8 -5 0 -1 -7 10 -16 11 -8 19 -18 18 -22 -2 -7 22 -44 45 -68 7 -8 10 -14
5 -14 -4 0 7 -13 25 -29 18 -17 32 -33 31 -36 -2 -12 94 -114 103 -109 5 3 8
2 7 -3 -4 -20 2 -33 15 -33 14 0 31 -27 27 -43 -1 -5 2 -6 7 -3 5 3 31 -17 60
-44 28 -28 53 -50 57 -50 3 0 18 -11 33 -25 15 -14 34 -32 43 -40 9 -8 21 -15
27 -15 7 0 12 -4 12 -10 0 -5 7 -10 15 -10 8 0 15 -4 15 -8 0 -5 12 -15 28
-23 15 -8 30 -18 34 -24 4 -5 11 -10 15 -11 17 -2 49 -19 67 -36 11 -10 28
-18 38 -18 10 0 18 -4 18 -10 0 -5 7 -10 15 -10 8 0 15 -5 15 -11 0 -5 4 -7
10 -4 5 3 10 1 10 -5 0 -7 7 -10 15 -6 8 3 15 2 15 -3 0 -5 11 -12 25 -15 14
-4 25 -11 25 -16 0 -5 7 -7 15 -4 8 3 21 -1 30 -9 8 -9 24 -14 35 -12 11 2 18
0 15 -6 -4 -5 3 -10 14 -10 39 -3 46 -5 44 -15 -1 -6 8 -10 20 -9 12 1 27 -2
34 -7 7 -5 17 -7 22 -4 5 4 12 2 16 -4 4 -6 11 -7 17 -4 6 4 13 2 17 -5 4 -6
19 -12 34 -13 15 -1 27 -6 27 -11 0 -5 9 -7 20 -4 11 3 23 1 26 -4 3 -5 10 -7
15 -3 5 3 17 0 26 -8 14 -11 16 -11 8 2 -7 12 -6 13 6 3 12 -10 18 -10 29 0 9
8 11 9 6 0 -9 -17 15 -28 25 -12 5 8 9 9 9 4 0 -6 22 -10 49 -10 27 0 47 -3
45 -6 -2 -4 11 -7 29 -7 215 -6 297 -6 297 -1 0 3 16 4 36 3 20 -2 45 1 55 7
14 7 19 6 19 -3 0 -8 3 -9 8 -3 4 6 16 11 27 10 11 0 40 3 65 8 25 4 61 10 80
13 19 3 37 9 38 15 3 6 10 5 20 -3 13 -10 14 -11 8 0 -6 9 -1 11 18 8 15 -3
24 -1 21 4 -3 4 2 11 11 14 10 4 13 2 8 -7 -6 -9 -4 -9 7 -1 15 12 61 26 93
30 10 1 21 6 25 11 3 6 14 9 24 7 10 -1 21 4 24 12 3 8 10 11 15 8 6 -4 14 0
19 7 7 12 9 11 9 -1 0 -12 2 -12 9 -2 4 7 15 14 23 16 9 1 23 8 32 15 9 7 16
10 16 6 0 -4 11 0 25 9 14 9 30 14 35 11 6 -3 10 1 10 9 0 9 7 16 15 16 22 0
65 22 59 31 -2 4 5 6 16 4 11 -2 18 0 15 4 -6 11 23 23 36 16 5 -4 6 2 2 11
-4 11 -3 15 4 11 6 -4 18 0 26 8 9 8 19 15 24 15 4 0 21 11 36 25 15 14 27 22
27 18 0 -4 7 1 15 11 8 11 15 16 15 11 0 -4 11 4 25 19 14 15 25 24 25 21 0
-4 6 0 13 7 8 7 26 22 40 33 15 11 27 26 27 33 0 7 5 10 10 7 6 -3 10 -1 10 4
0 6 3 10 8 8 4 -1 8 2 9 7 1 5 14 17 30 27 15 10 24 19 19 19 -6 0 5 11 24 25
19 14 31 25 27 25 -4 0 1 9 10 19 9 11 20 18 24 15 4 -2 10 5 14 16 3 11 11
20 16 20 6 0 7 5 4 10 -3 6 1 10 9 10 9 0 16 5 16 10 0 6 8 18 18 28 9 10 24
29 32 41 8 13 23 32 32 43 10 11 15 24 13 29 -3 4 4 10 15 14 11 4 18 11 15
16 -4 5 -1 9 5 9 6 0 8 4 5 10 -3 5 -1 10 5 10 6 0 9 4 6 9 -3 5 1 12 10 15 8
3 12 10 9 16 -3 5 -1 10 4 10 6 0 11 7 11 15 0 8 4 15 8 15 8 0 36 60 33 73 0
4 3 7 7 7 12 0 33 50 26 61 -3 5 0 8 6 7 7 -2 14 8 16 20 2 13 11 33 19 45 8
12 15 29 15 39 0 10 5 18 11 18 5 0 7 5 4 10 -3 5 -3 16 2 22 4 7 9 22 10 33
2 10 7 22 12 25 4 3 7 13 5 23 -1 9 2 17 6 17 5 0 9 8 10 18 2 52 6 70 12 66
4 -3 10 8 13 23 3 15 9 42 14 58 4 17 7 42 7 57 -1 15 3 24 8 21 5 -4 7 1 3
10 -3 9 -1 18 6 21 9 3 8 5 -1 5 -7 1 -10 6 -7 12 4 6 8 28 10 49 2 22 6 43 9
49 4 5 2 13 -4 16 -7 4 -8 11 -2 18 12 15 13 345 1 353 -5 3 -5 12 1 23 5 10
6 21 3 25 -4 4 -8 30 -9 59 -1 29 -7 64 -12 78 -6 15 -9 38 -8 53 2 18 -1 26
-13 26 -14 0 -14 2 -1 10 8 5 10 10 3 10 -6 0 -10 8 -8 18 1 9 -4 30 -12 45
-7 15 -11 32 -8 37 3 5 1 11 -5 15 -6 4 -8 11 -5 16 4 5 1 9 -4 9 -6 0 -10 3
-9 8 3 12 -14 76 -27 97 -6 11 -11 27 -11 35 1 8 -4 21 -11 28 -7 8 -11 18 -8
23 4 5 3 9 -2 9 -4 0 -13 11 -20 25 -8 18 -8 23 0 18 6 -4 1 7 -11 24 -12 17
-22 39 -22 48 0 9 -3 14 -8 11 -4 -2 -12 7 -19 20 -8 18 -8 23 0 18 7 -3 4 1
-7 10 -10 8 -15 19 -11 25 3 6 2 11 -4 11 -6 0 -18 14 -27 32 -9 18 -23 38
-30 46 -8 7 -14 18 -14 23 0 6 -6 16 -12 24 -29 29 -48 56 -48 65 0 5 -8 14
-17 19 -10 6 -14 11 -9 11 5 0 -1 8 -12 19 -12 10 -19 21 -15 25 3 3 -1 6 -10
6 -9 0 -17 6 -17 14 0 8 -7 17 -16 20 -8 3 -12 10 -9 16 3 5 0 10 -7 10 -8 0
-27 18 -44 39 -16 22 -32 37 -36 34 -5 -2 -8 3 -8 11 0 9 -7 16 -16 16 -8 0
-12 5 -9 10 3 6 2 10 -3 10 -5 0 -28 18 -51 40 -22 22 -43 40 -46 40 -3 0 -16
9 -28 20 -53 49 -93 80 -103 80 -7 0 -15 7 -18 16 -3 8 -10 12 -16 9 -5 -3
-10 -2 -10 3 0 5 -13 15 -30 22 -16 7 -30 16 -30 19 0 4 -16 13 -35 21 -19 8
-35 17 -35 20 0 11 -51 31 -61 24 -5 -3 -12 1 -14 9 -3 7 -21 20 -40 27 -19 8
-35 18 -35 22 0 5 -4 7 -8 4 -4 -2 -21 1 -37 8 -17 7 -43 19 -60 27 -16 7 -38
13 -47 12 -10 0 -18 4 -18 8 0 5 -11 9 -24 9 -14 0 -27 4 -30 9 -3 5 -18 11
-33 14 -16 3 -39 8 -53 12 -14 4 -33 8 -42 8 -10 1 -18 5 -18 10 0 4 -4 6 -9
2 -5 -3 -12 -1 -15 3 -3 5 -17 7 -31 4 -14 -2 -25 0 -25 4 0 13 -36 15 -382
18 -280 3 -318 2 -334 -13z"/>
</g>
</svg>
